<?xml version="1.0" encoding="utf-8"?>
<svg version="1.1" xmlns:xlink="http://www.w3.org/1999/xlink" width="30px" height="30px" xmlns="http://www.w3.org/2000/svg">
  <g transform="matrix(1 0 0 1 -848 -1164 )">
    <path d="M 863 1165  C 870.84 1165  877 1171.16  877 1179  C 877 1186.84  870.84 1193  863 1193  C 855.16 1193  849 1186.84  849 1179  C 849 1171.16  855.16 1165  863 1165  Z " fill-rule="nonzero" fill="#ffffff" stroke="none" fill-opacity="0" />
    <path d="M 863 1165  C 870.84 1165  877 1171.16  877 1179  C 877 1186.84  870.84 1193  863 1193  C 855.16 1193  849 1186.84  849 1179  C 849 1171.16  855.16 1165  863 1165  Z " stroke-width="2" stroke="#ffffff" fill="none" />
  </g>
</svg>