<?xml version="1.0" encoding="utf-8"?>
<svg version="1.1" xmlns:xlink="http://www.w3.org/1999/xlink" width="16px" height="16px" xmlns="http://www.w3.org/2000/svg">
  <g transform="matrix(1 0 0 1 -190 -58 )">
    <path d="M 198 58  C 202.48 58  206 61.52  206 66  C 206 70.48  202.48 74  198 74  C 193.52 74  190 70.48  190 66  C 190 61.52  193.52 58  198 58  Z " fill-rule="nonzero" fill="#ffffff" stroke="none" />
    <path d="M 198 58.5  C 202.2 58.5  205.5 61.8  205.5 66  C 205.5 70.2  202.2 73.5  198 73.5  C 193.8 73.5  190.5 70.2  190.5 66  C 190.5 61.8  193.8 58.5  198 58.5  Z " stroke-width="1" stroke="#797979" fill="none" />
  </g>
</svg>